<svg width="49" height="52" viewBox="0 0 49 52" fill="none" xmlns="http://www.w3.org/2000/svg">
<path fill-rule="evenodd" clip-rule="evenodd" d="M22.4584 39C30.3514 39 36.75 32.2097 36.75 23.8334C36.75 15.457 30.3514 8.66669 22.4584 8.66669C14.5653 8.66669 8.16669 15.457 8.16669 23.8334C8.16669 32.2097 14.5653 39 22.4584 39ZM22.4584 14.1667C21.246 14.1667 20.0472 14.4202 18.9307 14.9109C17.8144 15.4016 16.8041 16.1191 15.9559 17.0193C15.1077 17.9194 14.4378 18.9847 13.9818 20.1532C13.5258 21.3215 13.2917 22.5719 13.2917 23.8334C13.2917 24.3856 13.7394 24.8334 14.2917 24.8334C14.844 24.8334 15.2917 24.3856 15.2917 23.8334C15.2917 22.8186 15.4801 21.815 15.8449 20.8804C16.2097 19.9458 16.7429 19.1004 17.4114 18.3909C18.0799 17.6815 18.8702 17.1222 19.7355 16.7419C20.6007 16.3615 21.5257 16.1667 22.4584 16.1667C23.0106 16.1667 23.4584 15.719 23.4584 15.1667C23.4584 14.6144 23.0106 14.1667 22.4584 14.1667Z" fill="#222222"/>
<path d="M40.8333 43.3333L36.75 39" stroke="#222222" stroke-width="2" stroke-linecap="round"/>
</svg>
